<?xml version="1.0" encoding="UTF-8"?>
<svg width="1536px" height="450px" viewBox="0 0 1536 450" version="1.1" xmlns="http://www.w3.org/2000/svg" xmlns:xlink="http://www.w3.org/1999/xlink">
    <title>svg1</title>
    <defs>
        <radialGradient cx="15.4516178%" cy="99.999991%" fx="15.4516178%" fy="99.999991%" r="237.501455%" gradientTransform="translate(0.1545, 1), scale(0.293, 1), rotate(0), translate(-0.1545, -1)" id="radialGradient-1">
            <stop stop-color="#5BCEFA" offset="0%"></stop>
            <stop stop-color="#F5A9B8" offset="61.0576923%"></stop>
            <stop stop-color="#F9CFD7" offset="100%"></stop>
        </radialGradient>
    </defs>
    <g id="Page-1" stroke="none" stroke-width="1" fill="none" fill-rule="evenodd">
        <g id="svg1" transform="translate(-5, 7)" fill="url(#radialGradient-1)" fill-rule="nonzero">
            <path d="M388.205075,-6.984375 C379.704755,-7.2668895 371.355125,-3.63304735 365.755865,3.19726565 L5,443 L109.521485,403.81445 L169.51367,330.60938 C193.48469,324.5642 229.49033,311.161505 272.39843,291.94532 C316.509905,272.19017 362.437925,248.69411 404.736335,224.138675 C415.517135,217.880105 425.75228,211.734905 435.5,205.705085 C461.43068,189.664715 489.066125,170.23046 512.16797,148.957025 C525.853205,136.354943 538.19633,122.880413 547.64063,108.867188 C556.63568,95.520533 563.26727,81.282851 565.58399,66.634766 C566.59499,60.032741 566.93462,53.812706 566.587895,47.988281 C566.24147,42.168161 565.210295,36.765614 563.498045,31.818359 C561.774455,26.838269 559.40111,22.4388845 556.486325,18.6249995 C553.54412,14.775272 550.146725,11.6466965 546.5039,9.130859 C539.064875,3.9932498 530.646845,1.4316368 522.716795,0.1992188 C514.17422,-1.1284777 505.402025,-1.0328527 497.52929,-0.3867187 C483.919145,0.7302218 470.97497,3.67894505 462.62696,5.74218755 C458.64164,6.72721805 454.94201,7.73349755 451.62695,8.695313 C433.923575,13.831325 430.901,16.1589515 430.87109,16.4238275 C430.871075,16.424822 430.87103,16.4287775 430.87109,16.4296775 L430.87109,16.4316275 L430.87109,16.4335775 C431.00804,16.868654 435.742985,15.6621695 452.62109,13.4413895 C455.981225,12.999227 459.723545,12.5659355 463.707035,12.2148275 C472.17584,11.4684425 484.83293,10.9531535 497.35742,12.437483 C504.644975,13.301156 511.92305,14.847959 518.251955,17.4140465 C524.20784,19.8288965 528.79373,22.933751 531.83399,26.642561 C533.27912,28.405466 534.34523,30.2643965 535.107425,32.2460765 C535.85579,34.191803 536.355785,36.372893 536.58203,38.8554515 C536.80841,41.3388965 536.77322,44.2651655 536.343755,47.7109205 C535.91144,51.1801805 535.07792,55.191983 533.699225,59.828108 C531.152045,68.039078 525.9314,77.0628035 517.876955,86.8437335 C509.44487,97.0832435 498.393395,107.564594 485.460935,118.078109 C464.39798,135.201314 439.364195,151.5887 415.14062,166.197245 L415.14062,20.896484 C415.12862,9.1105025 407.735405,-1.40214775 396.662105,-5.37109375 C393.89351,-6.36290875 391.038515,-6.890184 388.205075,-6.984375 Z M359.404295,98.894531 L359.404295,196.83203 C324.55916,214.44296 287.826245,230.681915 252.35156,245.63282 C245.439755,248.54579 238.73738,251.344265 232.26758,254.03321 L359.404295,98.894531 Z M851.53907,170.722655 C821.586005,170.722655 796.5188,183.014915 780.2168,204.525395 L780.2168,175.990235 L729.27929,175.990235 L729.27929,403.822265 L780.2168,403.822265 L780.2168,249.74219 C793.462175,223.402805 818.012525,209.080505 847.464845,209.347655 C854.458235,209.410505 864.494495,211.26098 872.744135,213.244145 C881.240315,201.8246 889.58384,191.0114 901.49024,182.222655 C885.53651,176.33165 866.668925,170.722655 851.53907,170.722655 Z M1292.42188,170.722655 C1262.46887,170.722655 1237.4035,183.01493 1221.10157,204.525395 L1221.10157,175.990235 L1170.16211,177.08789 L1170.16211,403.822265 L1221.10157,403.822265 L1221.10157,249.74219 C1234.34702,223.402805 1258.8972,209.080505 1288.34961,209.347655 C1289.72688,209.359655 1291.14314,209.423555 1292.59375,209.52734 C1302.3539,196.79498 1314.0413,185.94779 1327.2461,177.08789 C1315.32433,173.443355 1302.96443,170.722655 1292.42188,170.722655 L1292.42188,170.722655 Z M1006.66406,171.5957 C931.267355,171.5957 871.66406,225.179915 871.66406,290.15039 C871.66406,355.120865 931.267355,406.04297 1006.66406,406.04297 C1082.06075,406.04297 1141.66406,355.120865 1141.66406,290.15039 C1141.66406,225.179915 1082.06075,171.5957 1006.66406,171.5957 Z M1427.39258,172.47656 C1376.70356,172.47656 1335.05778,191.75441 1309.75781,226.51172 L1337.75586,246.322265 C1366.9252,219.53246 1396.32003,209.347655 1420.26366,209.347655 C1461.52802,209.347655 1491.07226,224.716955 1491.07226,256.32422 L1491.07226,280.031255 C1469.67578,271.69046 1438.48599,267.302735 1413.52343,267.302735 C1348.31562,267.302735 1306.22852,295.85699 1306.22852,338 C1306.22852,378.38705 1347.80753,406.04297 1403.8457,406.04297 C1435.43084,406.04297 1468.14747,395.91887 1491.07226,380.11523 L1491.07226,403.822265 L1541,403.822265 L1541,251.05859 C1541,200.13578 1478.08158,172.47656 1427.39258,172.47656 Z M637.894535,175.990235 L637.894535,365.63282 L574.21484,365.63282 C534.478745,365.63282 509.517575,343.679735 509.517575,308.56055 L509.517575,182.82227 C493.21106,196.08869 475.937015,208.24037 459.082025,219.093755 L459.082025,316.02344 C459.082025,367.82423 500.341505,403.822265 560.455085,403.822265 L637.894535,403.822265 L688.83398,403.822265 L688.83398,175.990235 L637.894535,175.990235 Z M1006.66406,210.228515 C1054.04173,210.228515 1091.73634,246.690425 1091.73634,290.15039 C1091.73634,333.610385 1054.04173,367.408205 1006.66406,367.408205 C959.28641,367.408205 921.583985,333.610385 921.583985,290.15039 C921.583985,246.690425 959.28641,210.228515 1006.66406,210.228515 Z M415.14062,245.7539 C400.215995,254.39138 384.891635,262.871255 369.363275,271.111325 L359.404295,276.400385 L359.404295,403.81445 L415.14062,403.81445 L415.14062,245.7539 Z M1417.59766,297.5918 C1443.57898,297.5918 1471.71364,301.97894 1491.07226,311.63672 L1491.07226,349.390625 C1472.22301,363.87728 1443.07018,373.556645 1415.56055,373.556645 C1380.91879,373.556645 1355.13868,358.62965 1355.13868,337.11914 C1355.13868,314.73068 1380.40883,297.5918 1417.59766,297.5918 Z" id="path18"></path>
        </g>
    </g>
</svg>