<?xml version="1.0" encoding="UTF-8"?>
<svg width="1536px" height="450px" viewBox="0 0 1536 450" version="1.1" xmlns="http://www.w3.org/2000/svg" xmlns:xlink="http://www.w3.org/1999/xlink">
    <title>svg1</title>
    <defs>
        <radialGradient cx="6.13232052%" cy="99.9999899%" fx="6.13232052%" fy="99.9999899%" r="309.213076%" gradientTransform="translate(0.0613, 1), scale(0.293, 1), rotate(0), translate(-0.0613, -1)" id="radialGradient-1">
            <stop stop-color="#E40303" offset="0.0703125%"></stop>
            <stop stop-color="#D3772C" offset="17.9332386%"></stop>
            <stop stop-color="#ECDD11" offset="31.8671875%"></stop>
            <stop stop-color="#008026" offset="52.7421875%"></stop>
            <stop stop-color="#004CFF" offset="75.6145833%"></stop>
            <stop stop-color="#732982" offset="100%"></stop>
        </radialGradient>
    </defs>
    <g id="Page-1" stroke="none" stroke-width="1" fill="none" fill-rule="evenodd">
        <g id="svg1" fill="url(#radialGradient-1)">
            <path d="M383.205075,0.015625005 C374.704755,-0.266889495 366.355125,3.36695265 360.755865,10.1972656 L0,450 L104.521485,410.81445 L164.51367,337.60938 C188.48469,331.5642 224.49033,318.161505 267.39843,298.94532 C311.509905,279.19017 357.437925,255.69411 399.736335,231.138675 C410.517135,224.880105 420.75228,218.734905 430.5,212.705085 C456.43068,196.664715 484.066125,177.23046 507.16797,155.957025 C520.853205,143.354943 533.19633,129.880413 542.64063,115.867188 C551.63568,102.520533 558.26727,88.282851 560.58399,73.634766 C561.59499,67.032741 561.93462,60.812706 561.587895,54.988281 C561.24147,49.168161 560.210295,43.765614 558.498045,38.818359 C556.774455,33.838269 554.40111,29.4388845 551.486325,25.6249995 C548.54412,21.775272 545.146725,18.6466965 541.5039,16.130859 C534.064875,10.9932498 525.646845,8.4316368 517.716795,7.1992188 C509.17422,5.8715223 500.402025,5.9671473 492.52929,6.6132813 C478.919145,7.7302218 465.97497,10.678945 457.62696,12.7421876 C453.64164,13.7272181 449.94201,14.7334975 446.62695,15.695313 C428.923575,20.831325 425.901,23.1589515 425.87109,23.4238275 C425.871075,23.424822 425.87103,23.4287775 425.87109,23.4296775 L425.87109,23.4316275 L425.87109,23.4335775 C426.00804,23.868654 430.742985,22.6621695 447.62109,20.4413895 C450.981225,19.999227 454.723545,19.5659355 458.707035,19.2148275 C467.17584,18.4684425 479.83293,17.9531535 492.35742,19.437483 C499.644975,20.301156 506.92305,21.847959 513.251955,24.4140465 C519.20784,26.8288965 523.79373,29.933751 526.83399,33.642561 C528.27912,35.405466 529.34523,37.2643965 530.107425,39.2460765 C530.85579,41.191803 531.355785,43.372893 531.58203,45.8554515 C531.80841,48.3388965 531.77322,51.2651655 531.343755,54.7109205 C530.91144,58.1801805 530.07792,62.191983 528.699225,66.828108 C526.152045,75.039078 520.9314,84.0628035 512.876955,93.8437335 C504.44487,104.083244 493.393395,114.564594 480.460935,125.078109 C459.39798,142.201314 434.364195,158.5887 410.14062,173.197245 L410.14062,27.896484 C410.12862,16.1105025 402.735405,5.59785225 391.662105,1.62890625 C388.89351,0.63709125 386.038515,0.109816005 383.205075,0.015625005 Z M354.404295,105.894531 L354.404295,203.83203 C319.55916,221.44296 282.826245,237.681915 247.35156,252.63282 C240.439755,255.54579 233.73738,258.344265 227.26758,261.03321 L354.404295,105.894531 Z M846.53907,177.722655 C816.586005,177.722655 791.5188,190.014915 775.2168,211.525395 L775.2168,182.990235 L724.27929,182.990235 L724.27929,410.822265 L775.2168,410.822265 L775.2168,256.74219 C788.462175,230.402805 813.012525,216.080505 842.464845,216.347655 C849.458235,216.410505 859.494495,218.26098 867.744135,220.244145 C876.240315,208.8246 884.58384,198.0114 896.49024,189.222655 C880.53651,183.33165 861.668925,177.722655 846.53907,177.722655 Z M1287.42188,177.722655 C1257.46887,177.722655 1232.4035,190.01493 1216.10157,211.525395 L1216.10157,182.990235 L1165.16211,184.08789 L1165.16211,410.822265 L1216.10157,410.822265 L1216.10157,256.74219 C1229.34702,230.402805 1253.8972,216.080505 1283.34961,216.347655 C1284.72688,216.359655 1286.14314,216.423555 1287.59375,216.52734 C1297.3539,203.79498 1309.0413,192.94779 1322.2461,184.08789 C1310.32433,180.443355 1297.96443,177.722655 1287.42188,177.722655 L1287.42188,177.722655 Z M1001.66406,178.5957 C926.267355,178.5957 866.66406,232.179915 866.66406,297.15039 C866.66406,362.120865 926.267355,413.04297 1001.66406,413.04297 C1077.06075,413.04297 1136.66406,362.120865 1136.66406,297.15039 C1136.66406,232.179915 1077.06075,178.5957 1001.66406,178.5957 Z M1422.39258,179.47656 C1371.70356,179.47656 1330.05778,198.75441 1304.75781,233.51172 L1332.75586,253.322265 C1361.9252,226.53246 1391.32003,216.347655 1415.26366,216.347655 C1456.52802,216.347655 1486.07226,231.716955 1486.07226,263.32422 L1486.07226,287.031255 C1464.67578,278.69046 1433.48599,274.302735 1408.52343,274.302735 C1343.31562,274.302735 1301.22852,302.85699 1301.22852,345 C1301.22852,385.38705 1342.80753,413.04297 1398.8457,413.04297 C1430.43084,413.04297 1463.14747,402.91887 1486.07226,387.11523 L1486.07226,410.822265 L1536,410.822265 L1536,258.05859 C1536,207.13578 1473.08158,179.47656 1422.39258,179.47656 Z M632.894535,182.990235 L632.894535,372.63282 L569.21484,372.63282 C529.478745,372.63282 504.517575,350.679735 504.517575,315.56055 L504.517575,189.82227 C488.21106,203.08869 470.937015,215.24037 454.082025,226.093755 L454.082025,323.02344 C454.082025,374.82423 495.341505,410.822265 555.455085,410.822265 L632.894535,410.822265 L683.83398,410.822265 L683.83398,182.990235 L632.894535,182.990235 Z M1001.66406,217.228515 C1049.04173,217.228515 1086.73634,253.690425 1086.73634,297.15039 C1086.73634,340.610385 1049.04173,374.408205 1001.66406,374.408205 C954.28641,374.408205 916.583985,340.610385 916.583985,297.15039 C916.583985,253.690425 954.28641,217.228515 1001.66406,217.228515 Z M410.14062,252.7539 C395.215995,261.39138 379.891635,269.871255 364.363275,278.111325 L354.404295,283.400385 L354.404295,410.81445 L410.14062,410.81445 L410.14062,252.7539 Z M1412.59766,304.5918 C1438.57898,304.5918 1466.71364,308.97894 1486.07226,318.63672 L1486.07226,356.390625 C1467.22301,370.87728 1438.07018,380.556645 1410.56055,380.556645 C1375.91879,380.556645 1350.13868,365.62965 1350.13868,344.11914 C1350.13868,321.73068 1375.40883,304.5918 1412.59766,304.5918 Z" id="path18" fill-rule="nonzero"></path>
        </g>
    </g>
</svg>